<svg width="80" height="80" viewBox="0 0 80 80" fill="none" xmlns="http://www.w3.org/2000/svg">
<g clip-path="url(#clip0_130_239)">
<g filter="url(#filter0_d_130_239)">
<path d="M40.0002 0L51.4553 11.4552L50.8189 15.6354L54.9992 14.999L76.0004 36.0002L68.6817 43.3188L64.3861 42.9289L64.3861 47.6145L52.7717 59.2288L48.9534 58.5924L49.5898 62.4108L40.0002 72.0004L14.5006 46.5008L17.4079 44.6351L11.3186 43.3188L4 36.0002L40.0002 0Z" fill="#333333"/>
<path d="M50.6287 16.7946L54.4048 16.2198L74.0993 35.9143L67.5697 42.444L63.6656 42.0896L63.1203 42.0401L63.1203 42.5875V46.8933L52.2626 57.751L48.8388 57.1804L48.1483 57.0653L48.2634 57.7558L48.8341 61.1796L40.1335 69.8801L16.3667 46.1133L18.6443 44.6517L19.663 43.9979L18.4799 43.7422L12.7589 42.5055L6.16774 35.9143L40.1335 1.9485L50.634 12.449L50.0591 16.2251L49.9568 16.8969L50.6287 16.7946Z" stroke="#B5B5B5"/>
</g>
<path d="M32 42H48M32 30H48H32ZM32 36H48H32Z" stroke="#B5B5B5" stroke-width="2" stroke-linecap="round" stroke-linejoin="round"/>
</g>
<defs>
<filter id="filter0_d_130_239" x="0" y="0" width="80.0004" height="80.0004" filterUnits="userSpaceOnUse" color-interpolation-filters="sRGB">
<feFlood flood-opacity="0" result="BackgroundImageFix"/>
<feColorMatrix in="SourceAlpha" type="matrix" values="0 0 0 0 0 0 0 0 0 0 0 0 0 0 0 0 0 0 127 0" result="hardAlpha"/>
<feOffset dy="4"/>
<feGaussianBlur stdDeviation="2"/>
<feComposite in2="hardAlpha" operator="out"/>
<feColorMatrix type="matrix" values="0 0 0 0 0 0 0 0 0 0 0 0 0 0 0 0 0 0 0.25 0"/>
<feBlend mode="normal" in2="BackgroundImageFix" result="effect1_dropShadow_130_239"/>
<feBlend mode="normal" in="SourceGraphic" in2="effect1_dropShadow_130_239" result="shape"/>
</filter>
<clipPath id="clip0_130_239">
<rect width="80" height="80" fill="white"/>
</clipPath>
</defs>
</svg>
